<svg xmlns="http://www.w3.org/2000/svg" xmlns:xlink="http://www.w3.org/1999/xlink" xmlns:inkscape="http://www.inkscape.org/namespaces/inkscape" version="1.1" width="240.945" height="240.945" viewBox="0 0 240.945 240.945">
<defs>
<clipPath id="clip_0">
<path transform="matrix(1,0,0,-1,0,240.945)" d="M0 0H240.945V240.945H0Z"/>
</clipPath>
<clipPath id="clip_1">
<path transform="matrix(1,0,0,-1,0,240.945)" d="M0 0H240.945V240.945H0Z"/>
</clipPath>
<clipPath id="clip_2">
<path transform="matrix(1,0,0,-1,0,240.945)" d="M53.6116 145.4361H76.0684V175.957H53.6116Z"/>
</clipPath>
<clipPath id="clip_3">
<path transform="matrix(1,0,0,-1,0,240.945)" d="M53.6116 145.436H76.0684V175.957H53.6116Z"/>
</clipPath>
<clipPath id="clip_4">
<path transform="matrix(1,0,0,-1,0,240.945)" d="M0 0H240.945V240.945H0Z"/>
</clipPath>
<clipPath id="clip_5">
<path transform="matrix(1,0,0,-1,0,240.945)" d="M83.3037 146.043H104.9807V175.9567H83.3037Z"/>
</clipPath>
<clipPath id="clip_6">
<path transform="matrix(1,0,0,-1,0,240.945)" d="M83.3032 146.043H104.981V175.957H83.3032Z"/>
</clipPath>
<clipPath id="clip_7">
<path transform="matrix(1,0,0,-1,0,240.945)" d="M0 0H240.945V240.945H0Z"/>
</clipPath>
<clipPath id="clip_8">
<path transform="matrix(1,0,0,-1,0,240.945)" d="M110.005 146.0433H131.163V175.9563H110.005Z"/>
</clipPath>
<clipPath id="clip_9">
<path transform="matrix(1,0,0,-1,0,240.945)" d="M110.005 146.043H131.163V175.957H110.005Z"/>
</clipPath>
<clipPath id="clip_10">
<path transform="matrix(1,0,0,-1,0,240.945)" d="M0 0H240.945V240.945H0Z"/>
</clipPath>
<clipPath id="clip_11">
<path transform="matrix(1,0,0,-1,0,240.945)" d="M133.976 146.0432H160.073V175.9562H133.976Z"/>
</clipPath>
<clipPath id="clip_12">
<path transform="matrix(1,0,0,-1,0,240.945)" d="M133.976 146.043H160.073V175.957H133.976Z"/>
</clipPath>
<clipPath id="clip_13">
<path transform="matrix(1,0,0,-1,0,240.945)" d="M0 0H240.945V240.945H0Z"/>
</clipPath>
<clipPath id="clip_14">
<path transform="matrix(1,0,0,-1,0,240.945)" d="M164.622 146.043H188.0327V175.9568H164.622Z"/>
</clipPath>
<clipPath id="clip_15">
<path transform="matrix(1,0,0,-1,0,240.945)" d="M164.622 146.043H188.03299V175.957H164.622Z"/>
</clipPath>
<clipPath id="clip_16">
<path transform="matrix(1,0,0,-1,0,240.945)" d="M0 0H240.945V240.945H0Z"/>
</clipPath>
<clipPath id="clip_17">
<path transform="matrix(1,0,0,-1,0,240.945)" d="M54.693 102.6955H81.787V133.958H54.693Z"/>
</clipPath>
<clipPath id="clip_18">
<path transform="matrix(1,0,0,-1,0,240.945)" d="M54.693 102.695H81.787V133.95801H54.693Z"/>
</clipPath>
<clipPath id="clip_19">
<path transform="matrix(1,0,0,-1,0,240.945)" d="M0 0H240.945V240.945H0Z"/>
</clipPath>
<clipPath id="clip_20">
<path transform="matrix(1,0,0,-1,0,240.945)" d="M87.8212 102.061H118.721V134.592H87.8212Z"/>
</clipPath>
<clipPath id="clip_21">
<path transform="matrix(1,0,0,-1,0,240.945)" d="M87.8212 102.061H118.72099V134.592H87.8212Z"/>
</clipPath>
<clipPath id="clip_22">
<path transform="matrix(1,0,0,-1,0,240.945)" d="M0 0H240.945V240.945H0Z"/>
</clipPath>
<clipPath id="clip_23">
<path transform="matrix(1,0,0,-1,0,240.945)" d="M124.9827 102.6955H158.6917V133.958H124.9827Z"/>
</clipPath>
<clipPath id="clip_24">
<path transform="matrix(1,0,0,-1,0,240.945)" d="M124.982 102.695H158.692V133.95801H124.982Z"/>
</clipPath>
<clipPath id="clip_25">
<path transform="matrix(1,0,0,-1,0,240.945)" d="M0 0H240.945V240.945H0Z"/>
</clipPath>
<clipPath id="clip_26">
<path transform="matrix(1,0,0,-1,0,240.945)" d="M166.402 102.6955H188.964V133.958H166.402Z"/>
</clipPath>
<clipPath id="clip_27">
<path transform="matrix(1,0,0,-1,0,240.945)" d="M166.402 102.695H188.96399V133.95801H166.402Z"/>
</clipPath>
<clipPath id="clip_28">
<path transform="matrix(1,0,0,-1,0,240.945)" d="M0 0H240.945V240.945H0Z"/>
</clipPath>
<clipPath id="clip_29">
<path transform="matrix(1,0,0,-1,0,240.945)" d="M51.5003 87.4531H189.445V88.1617H51.5003Z"/>
</clipPath>
<clipPath id="clip_30">
<path transform="matrix(1,0,0,-1,0,240.945)" d="M51.5003 87.4531H189.445V88.161708H51.5003Z"/>
</clipPath>
<clipPath id="clip_31">
<path transform="matrix(1,0,0,-1,0,240.945)" d="M0 0H240.945V240.945H0Z"/>
</clipPath>
<clipPath id="clip_32">
<path transform="matrix(1,0,0,-1,0,240.945)" d="M53.6789 62.1535H188.435V75.6014H53.6789Z"/>
</clipPath>
<clipPath id="clip_33">
<path transform="matrix(1,0,0,-1,0,240.945)" d="M53.6789 62.1535H188.435V75.6014H53.6789Z"/>
</clipPath>
<clipPath id="clip_34">
<path transform="matrix(1,0,0,-1,0,240.945)" d="M53.6789 62.4156H64.3744V75.3396H53.6789Z"/>
</clipPath>
<clipPath id="clip_35">
<path transform="matrix(1,0,0,-1,0,240.945)" d="M53.6789 62.4152H64.374408V75.3398H53.6789Z"/>
</clipPath>
<clipPath id="clip_36">
<path transform="matrix(1,0,0,-1,0,240.945)" d="M53.6789 62.1535H188.435V75.6014H53.6789Z"/>
</clipPath>
<clipPath id="clip_37">
<path transform="matrix(1,0,0,-1,0,240.945)" d="M66.7624 62.4152H75.3594V75.3398H66.7624Z"/>
</clipPath>
<clipPath id="clip_38">
<path transform="matrix(1,0,0,-1,0,240.945)" d="M66.7622 62.4152H75.3594V75.3398H66.7622Z"/>
</clipPath>
<clipPath id="clip_39">
<path transform="matrix(1,0,0,-1,0,240.945)" d="M53.6789 62.1535H188.435V75.6014H53.6789Z"/>
</clipPath>
<clipPath id="clip_40">
<path transform="matrix(1,0,0,-1,0,240.945)" d="M76.663 62.1538H86.0288V75.6014H76.663Z"/>
</clipPath>
<clipPath id="clip_41">
<path transform="matrix(1,0,0,-1,0,240.945)" d="M76.663 62.1535H86.0288V75.6014H76.663Z"/>
</clipPath>
<clipPath id="clip_42">
<path transform="matrix(1,0,0,-1,0,240.945)" d="M53.6789 62.1535H188.435V75.6014H53.6789Z"/>
</clipPath>
<clipPath id="clip_43">
<path transform="matrix(1,0,0,-1,0,240.945)" d="M88.3253 62.4152H89.9358V75.3398H88.3253Z"/>
</clipPath>
<clipPath id="clip_44">
<path transform="matrix(1,0,0,-1,0,240.945)" d="M88.3253 62.4152H89.9358V75.3398H88.3253Z"/>
</clipPath>
<clipPath id="clip_45">
<path transform="matrix(1,0,0,-1,0,240.945)" d="M53.6789 62.1535H188.435V75.6014H53.6789Z"/>
</clipPath>
<clipPath id="clip_46">
<path transform="matrix(1,0,0,-1,0,240.945)" d="M92.087 62.1535H103.4748V75.6013H92.087Z"/>
</clipPath>
<clipPath id="clip_47">
<path transform="matrix(1,0,0,-1,0,240.945)" d="M92.087 62.1535H103.475V75.6014H92.087Z"/>
</clipPath>
<clipPath id="clip_48">
<path transform="matrix(1,0,0,-1,0,240.945)" d="M53.6789 62.1535H188.435V75.6014H53.6789Z"/>
</clipPath>
<clipPath id="clip_49">
<path transform="matrix(1,0,0,-1,0,240.945)" d="M106.1822 62.4152H116.297V75.3398H106.1822Z"/>
</clipPath>
<clipPath id="clip_50">
<path transform="matrix(1,0,0,-1,0,240.945)" d="M106.182 62.4152H116.297V75.3398H106.182Z"/>
</clipPath>
<clipPath id="clip_51">
<path transform="matrix(1,0,0,-1,0,240.945)" d="M53.6789 62.1535H188.435V75.6014H53.6789Z"/>
</clipPath>
<clipPath id="clip_52">
<path transform="matrix(1,0,0,-1,0,240.945)" d="M121.998 62.2097H132.692V75.2455H121.998Z"/>
</clipPath>
<clipPath id="clip_53">
<path transform="matrix(1,0,0,-1,0,240.945)" d="M121.998 62.2093H132.692V75.2455H121.998Z"/>
</clipPath>
<clipPath id="clip_54">
<path transform="matrix(1,0,0,-1,0,240.945)" d="M53.6789 62.1535H188.435V75.6014H53.6789Z"/>
</clipPath>
<clipPath id="clip_55">
<path transform="matrix(1,0,0,-1,0,240.945)" d="M138.282 62.4152H147.4218V75.3398H138.282Z"/>
</clipPath>
<clipPath id="clip_56">
<path transform="matrix(1,0,0,-1,0,240.945)" d="M138.282 62.4152H147.422V75.3398H138.282Z"/>
</clipPath>
<clipPath id="clip_57">
<path transform="matrix(1,0,0,-1,0,240.945)" d="M53.6789 62.1535H188.435V75.6014H53.6789Z"/>
</clipPath>
<clipPath id="clip_58">
<path transform="matrix(1,0,0,-1,0,240.945)" d="M149.719 62.1539H159.4209V75.3398H149.719Z"/>
</clipPath>
<clipPath id="clip_59">
<path transform="matrix(1,0,0,-1,0,240.945)" d="M149.719 62.1535H159.42099V75.3398H149.719Z"/>
</clipPath>
<clipPath id="clip_60">
<path transform="matrix(1,0,0,-1,0,240.945)" d="M53.6789 62.1535H188.435V75.6014H53.6789Z"/>
</clipPath>
<clipPath id="clip_61">
<path transform="matrix(1,0,0,-1,0,240.945)" d="M162.409 62.4152H164.02V75.3398H162.409Z"/>
</clipPath>
<clipPath id="clip_62">
<path transform="matrix(1,0,0,-1,0,240.945)" d="M162.409 62.4152H164.01999V75.3398H162.409Z"/>
</clipPath>
<clipPath id="clip_63">
<path transform="matrix(1,0,0,-1,0,240.945)" d="M53.6789 62.1535H188.435V75.6014H53.6789Z"/>
</clipPath>
<clipPath id="clip_64">
<path transform="matrix(1,0,0,-1,0,240.945)" d="M167.164 62.4152H175.7608V75.3398H167.164Z"/>
</clipPath>
<clipPath id="clip_65">
<path transform="matrix(1,0,0,-1,0,240.945)" d="M167.164 62.4152H175.761V75.3398H167.164Z"/>
</clipPath>
<clipPath id="clip_66">
<path transform="matrix(1,0,0,-1,0,240.945)" d="M53.6789 62.1535H188.435V75.6014H53.6789Z"/>
</clipPath>
<clipPath id="clip_67">
<path transform="matrix(1,0,0,-1,0,240.945)" d="M177.739 62.4156H188.435V75.3396H177.739Z"/>
</clipPath>
<clipPath id="clip_68">
<path transform="matrix(1,0,0,-1,0,240.945)" d="M177.739 62.4152H188.435V75.3398H177.739Z"/>
</clipPath>
</defs>
<g>
<g clip-path="url(#clip_0)">
<path transform="matrix(1,0,0,-1,0,240.945)" d="M233.8583 120.4724C233.8583 183.0934 183.0933 233.8584 120.4723 233.8584 57.8513 233.8584 7.0863 183.0934 7.0863 120.4724 7.0863 57.8514 57.8513 7.0864 120.4723 7.0864 183.0933 7.0864 233.8583 57.8514 233.8583 120.4724" fill="#515655"/>
</g>
<g clip-path="url(#clip_1)">
<g opacity=".95">
<g clip-path="url(#clip_2)">
<g clip-path="url(#clip_3)">
<path transform="matrix(1,0,0,-1,0,240.945)" d="M76.0684 157.0981C76.0684 156.1451 76.0684 155.2771 75.9814 154.4101 75.5484 149.4241 72.1664 145.4361 64.8394 145.4361 57.5134 145.4361 54.1314 149.4241 53.6984 154.4101 53.6114 155.2771 53.6114 156.1451 53.6114 157.0981V175.9571H57.3384V157.4441C57.3384 156.4911 57.3384 155.5811 57.4254 154.8011 57.7734 151.0281 60.2444 148.3831 64.8394 148.3831 69.4354 148.3831 71.9064 151.0281 72.2524 154.8011 72.3394 155.5811 72.3394 156.4911 72.3394 157.4441V175.9571H76.0684Z" fill="#ffffff"/>
</g>
</g>
</g>
</g>
<g clip-path="url(#clip_4)">
<g opacity=".95">
<g clip-path="url(#clip_5)">
<g clip-path="url(#clip_6)">
<path transform="matrix(1,0,0,-1,0,240.945)" d="M92.7547 161.9537C94.0997 161.9537 94.8367 161.9537 95.6597 162.0407 98.4347 162.2997 100.4727 164.0777 100.4727 167.4597 100.4727 170.7977 98.8677 172.3157 96.0927 172.7487 95.2697 172.8787 94.4457 172.9227 93.1007 172.9227H87.0327V161.9537ZM104.9807 146.0427H100.8627C100.0377 147.9507 99.6487 149.8587 99.2587 153.5437 98.9117 156.6207 97.7397 158.6587 94.7927 158.8747 94.0997 158.9197 93.3627 158.9197 92.6677 158.9197H87.0327V146.0427H83.3037V175.9567H93.1007C94.6197 175.9567 95.6597 175.9567 97.0037 175.7837 101.3387 175.2197 104.4617 172.8357 104.4617 167.8057 104.4617 163.8617 101.9017 161.6067 99.1277 160.7397 101.5557 159.6127 102.7257 156.8817 102.9877 153.8897 103.3337 149.9887 103.7667 147.6467 104.9807 146.0427" fill="#ffffff"/>
</g>
</g>
</g>
</g>
<g clip-path="url(#clip_7)">
<g opacity=".95">
<g clip-path="url(#clip_8)">
<g clip-path="url(#clip_9)">
<path transform="matrix(1,0,0,-1,0,240.945)" d="M127.174 154.4533C127.174 158.1383 125.179 159.4823 122.317 159.8723 121.321 160.0023 120.628 160.0463 119.933 160.0463H113.734V149.0773H120.193C120.888 149.0773 121.711 149.1203 122.275 149.1633 125.136 149.4243 127.174 151.2013 127.174 154.4533M113.734 163.0813H119.5C120.28 163.0813 121.017 163.1243 121.884 163.2543 124.963 163.7313 126.089 165.5523 126.089 168.1963 126.089 171.1443 124.182 172.5313 121.494 172.8353 120.715 172.9223 119.803 172.9223 119.11 172.9223H113.734ZM131.163 154.8443C131.163 149.3813 127.389 146.8663 123.445 146.2593 121.971 146.0433 121.017 146.0433 119.629 146.0433H110.005V175.9563H118.806C120.237 175.9563 121.278 175.9563 122.708 175.7833 127.434 175.1333 130.078 172.7483 130.078 168.4993 130.078 164.9013 128.084 162.9933 125.005 161.9533 128.952 161.0433 131.163 158.9623 131.163 154.8443" fill="#ffffff"/>
</g>
</g>
</g>
</g>
<g clip-path="url(#clip_10)">
<g opacity=".95">
<g clip-path="url(#clip_11)">
<g clip-path="url(#clip_12)">
<path transform="matrix(1,0,0,-1,0,240.945)" d="M151.4895 159.6562 147.1545 173.0092 142.5155 159.6562ZM141.4765 156.6212 137.9645 146.0432H133.9755L144.7265 175.9562H149.7555L160.0735 146.0432H156.0425L152.4885 156.6212Z" fill="#ffffff"/>
</g>
</g>
</g>
</g>
<g clip-path="url(#clip_13)">
<g opacity=".95">
<g clip-path="url(#clip_14)">
<g clip-path="url(#clip_15)">
<path transform="matrix(1,0,0,-1,0,240.945)" d="M182.3107 146.0428 168.2197 172.3148C168.3067 168.8038 168.3507 164.5118 168.3507 160.9998V146.0428H164.6217V175.9568H170.3447L184.4347 149.6838C184.3487 153.1958 184.3037 157.4878 184.3037 160.9998V175.9568H187.9467L188.0327 146.0428Z" fill="#ffffff"/>
</g>
</g>
</g>
</g>
<g clip-path="url(#clip_16)">
<g opacity=".95">
<g clip-path="url(#clip_17)">
<g clip-path="url(#clip_18)">
<path transform="matrix(1,0,0,-1,0,240.945)" d="M81.787 102.6955H75.582V115.5185H60.946V102.6955H54.693V133.9585H60.946V120.5015H75.582V133.9585H81.787Z" fill="#ffffff"/>
</g>
</g>
</g>
</g>
<g clip-path="url(#clip_19)">
<g opacity=".95">
<g clip-path="url(#clip_20)">
<g clip-path="url(#clip_21)">
<path transform="matrix(1,0,0,-1,0,240.945)" d="M112.1521 118.3254C112.1521 125.6674 108.7981 129.9254 103.2721 129.9254 97.6981 129.9254 94.3461 125.6674 94.3461 118.3254 94.3461 111.0314 97.6981 106.7264 103.2721 106.7264 108.7981 106.7264 112.1521 111.0314 112.1521 118.3254M118.7211 118.3254C118.7211 108.5394 112.8771 102.0604 103.2721 102.0604 93.6201 102.0604 87.8211 108.5394 87.8211 118.3254 87.8211 128.1584 93.6201 134.5924 103.2721 134.5924 112.8771 134.5924 118.7211 128.1584 118.7211 118.3254" fill="#ffffff"/>
</g>
</g>
</g>
</g>
<g clip-path="url(#clip_22)">
<g opacity=".95">
<g clip-path="url(#clip_23)">
<g clip-path="url(#clip_24)">
<path transform="matrix(1,0,0,-1,0,240.945)" d="M158.6917 102.6955H152.4377V117.1475C152.4377 120.4115 152.4377 124.5785 152.5287 127.8415 151.7587 124.5785 150.6257 120.4115 149.6287 117.1945L145.2337 102.6955H138.4377L133.9527 117.2385C133.0027 120.4115 131.8687 124.5785 131.1437 127.7965 131.2337 124.5335 131.2337 120.4115 131.2337 117.1475V102.6955H124.9827V133.9585H134.8587L141.9267 108.4485 148.9957 133.9585H158.6917Z" fill="#ffffff"/>
</g>
</g>
</g>
</g>
<g clip-path="url(#clip_25)">
<g opacity=".95">
<g clip-path="url(#clip_26)">
<g clip-path="url(#clip_27)">
<path transform="matrix(1,0,0,-1,0,240.945)" d="M188.9644 102.6955H166.4014V133.9585H188.5124V129.0655H172.6534V120.8195H187.3794V115.8795H172.6534V107.6325H188.9644Z" fill="#ffffff"/>
</g>
</g>
</g>
</g>
<g clip-path="url(#clip_28)">
<g opacity=".85">
<g clip-path="url(#clip_29)">
<g clip-path="url(#clip_30)">
<path transform="matrix(1,0,0,-1,51.5003,153.1376)" stroke-width=".709" stroke-linecap="butt" stroke-miterlimit="10" stroke-linejoin="miter" fill="none" stroke="#ffffff" d="M0 0H137.944"/>
</g>
</g>
</g>
</g>
<g clip-path="url(#clip_31)">
<g opacity=".95">
<g clip-path="url(#clip_32)">
<g clip-path="url(#clip_33)">
<g opacity=".95">
<g clip-path="url(#clip_34)">
<g clip-path="url(#clip_35)">
<path transform="matrix(1,0,0,-1,0,240.945)" d="M62.6128 69.0266C62.6128 71.8936 61.2828 73.5796 59.0918 73.9356 58.6798 74.0106 58.1928 74.0276 57.5188 74.0276H55.2898V63.7256H57.4248C58.0998 63.7256 58.5868 63.7446 58.9978 63.8196 61.1898 64.1756 62.6128 65.9746 62.6128 69.0266M64.3748 69.0266C64.3748 65.2246 62.1638 62.8656 59.1668 62.4906 58.5118 62.4156 58.2108 62.4156 57.5188 62.4156H53.6788V75.3396H57.6118C58.3058 75.3396 58.6048 75.3396 59.2608 75.2646 62.2578 74.8896 64.3748 72.8866 64.3748 69.0266" fill="#ffffff"/>
</g>
</g>
</g>
</g>
<g clip-path="url(#clip_36)">
<g opacity=".95">
<g clip-path="url(#clip_37)">
<g clip-path="url(#clip_38)">
<path transform="matrix(1,0,0,-1,0,240.945)" d="M75.3594 62.4152H66.7624V75.3402H75.1714V74.0272H68.3724V69.5322H74.6104V68.2222H68.3724V63.7252H75.3594Z" fill="#ffffff"/>
</g>
</g>
</g>
</g>
<g clip-path="url(#clip_39)">
<g opacity=".95">
<g clip-path="url(#clip_40)">
<g clip-path="url(#clip_41)">
<path transform="matrix(1,0,0,-1,0,240.945)" d="M85.897 71.7608H84.174C84.025 73.3908 83.069 74.3278 81.44 74.3278 80.073 74.3278 78.986 73.6908 78.986 72.3418 78.986 70.9368 79.792 70.3388 81.758 69.8888 84.605 69.2328 86.029 68.0718 86.029 65.8808 86.029 63.6138 84.081 62.1538 81.59 62.1538 78.742 62.1538 76.944 63.5948 76.663 66.0868H78.386C78.761 64.3818 79.941 63.4268 81.627 63.4268 83.107 63.4268 84.306 64.2318 84.306 65.5808 84.306 67.1548 83.406 67.8658 81.14 68.3898 78.855 68.9148 77.262 69.8328 77.262 71.9688 77.262 74.1968 79.192 75.6018 81.571 75.6018 84.249 75.6018 85.654 73.9718 85.897 71.7608" fill="#ffffff"/>
</g>
</g>
</g>
</g>
<g clip-path="url(#clip_42)">
<g opacity=".95">
<g clip-path="url(#clip_43)">
<g clip-path="url(#clip_44)">
<path transform="matrix(1,0,0,-1,0,240.945)" d="M88.325 62.415H89.936V75.340007H88.325Z" fill="#ffffff"/>
</g>
</g>
</g>
</g>
<g clip-path="url(#clip_45)">
<g opacity=".95">
<g clip-path="url(#clip_46)">
<g clip-path="url(#clip_47)">
<path transform="matrix(1,0,0,-1,0,240.945)" d="M103.3068 68.6533V62.4153H101.8828V64.6623L101.3028 63.4643C100.5718 62.6403 99.4298 62.1533 97.9498 62.1533 94.1858 62.1533 92.0868 65.0383 92.0868 68.8203 92.0868 72.7533 94.5218 75.6013 98.1938 75.6013 101.4708 75.6013 103.1938 73.7463 103.4568 71.2183L103.4748 71.0313H101.8648L101.8268 71.2183C101.4518 73.0733 100.3098 74.3273 98.1558 74.3273 95.5148 74.3273 93.8848 72.0243 93.8848 68.8953 93.8848 65.7113 95.4958 63.4273 98.0428 63.4273 100.1418 63.4273 101.6958 65.0383 101.6958 67.3413H98.6798V68.6533Z" fill="#ffffff"/>
</g>
</g>
</g>
</g>
<g clip-path="url(#clip_48)">
<g opacity=".95">
<g clip-path="url(#clip_49)">
<g clip-path="url(#clip_50)">
<path transform="matrix(1,0,0,-1,0,240.945)" d="M113.8242 62.4152 107.7372 73.7662C107.7742 72.2492 107.7932 70.3942 107.7932 68.8762V62.4152H106.1822V75.3402H108.6552L114.7422 63.9892C114.7042 65.5052 114.6862 67.3602 114.6862 68.8762V75.3402H116.2592L116.2972 62.4152Z" fill="#ffffff"/>
</g>
</g>
</g>
</g>
<g clip-path="url(#clip_51)">
<g opacity=".95">
<g clip-path="url(#clip_52)">
<g clip-path="url(#clip_53)">
<path transform="matrix(1,0,0,-1,0,240.945)" d="M126.4928 74.1217C125.4618 74.1217 124.9188 73.2597 124.9188 72.2857 124.9188 71.3877 125.3308 70.6947 125.8748 70.0197 127.1468 70.7507 127.9728 71.4237 127.9728 72.4917 127.9728 73.2597 127.5418 74.1217 126.5098 74.1217ZM126.1738 63.4447C127.2418 63.4447 128.1588 63.9317 128.7598 64.5877 128.0088 65.4107 126.6048 66.9487 125.1998 68.5587 124.5268 68.1277 123.5698 67.3217 123.5698 65.9917 123.5698 64.5507 124.6378 63.4447 126.1558 63.4447ZM130.7428 62.4147C130.3888 62.7707 130.0508 63.1267 129.5638 63.6507 128.4788 62.6407 127.2608 62.2097 125.8748 62.2097 123.4198 62.2097 121.9978 63.8587 121.9978 65.7497 121.9978 67.4717 123.0278 68.6537 124.4688 69.4387V69.4957C123.8148 70.3197 123.4198 71.2377 123.4198 72.1357 123.4198 73.6717 124.5268 75.2457 126.6238 75.2457 128.1978 75.2457 129.4138 74.1967 129.4138 72.5667 129.4138 71.2377 128.6458 70.1887 126.6428 69.1957V69.1397C127.7088 67.9027 128.9078 66.5177 129.7138 65.6187 130.2948 66.4977 130.6878 67.7157 130.9318 69.3077H132.4308C132.0918 67.3217 131.5498 65.7497 130.6128 64.6437 131.2878 63.9317 131.9418 63.2217 132.6928 62.4147Z" fill="#ffffff"/>
</g>
</g>
</g>
</g>
<g clip-path="url(#clip_54)">
<g opacity=".95">
<g clip-path="url(#clip_55)">
<g clip-path="url(#clip_56)">
<path transform="matrix(1,0,0,-1,0,240.945)" d="M145.6978 66.048C145.6978 67.641 144.8378 68.222 143.6008 68.39 143.1698 68.445 142.8708 68.465 142.5708 68.465H139.8928V63.726H142.6828C142.9828 63.726 143.3388 63.745 143.5828 63.764 144.8188 63.876 145.6978 64.643 145.6978 66.048M139.8928 69.777H142.3848C142.7208 69.777 143.0388 69.794 143.4138 69.852 144.7438 70.058 145.2298 70.843 145.2298 71.986 145.2298 73.26 144.4068 73.86 143.2448 73.991 142.9078 74.027 142.5148 74.027 142.2148 74.027H139.8928ZM147.4218 66.217C147.4218 63.858 145.7918 62.771 144.0868 62.509 143.4508 62.415 143.0388 62.415 142.4398 62.415H138.2818V75.34H142.0838C142.7018 75.34 143.1518 75.34 143.7698 75.265 145.8118 74.984 146.9538 73.952 146.9538 72.117 146.9538 70.562 146.0918 69.739 144.7628 69.29 146.4678 68.896 147.4218 67.997 147.4218 66.217" fill="#ffffff"/>
</g>
</g>
</g>
</g>
<g clip-path="url(#clip_57)">
<g opacity=".95">
<g clip-path="url(#clip_58)">
<g clip-path="url(#clip_59)">
<path transform="matrix(1,0,0,-1,0,240.945)" d="M159.4209 67.1909C159.4209 66.7789 159.4209 66.4039 159.3839 66.0309 159.1959 63.8759 157.7349 62.1539 154.5699 62.1539 151.4049 62.1539 149.9449 63.8759 149.7559 66.0309 149.7189 66.4039 149.7189 66.7789 149.7189 67.1909V75.3399H151.3299V67.3409C151.3299 66.9289 151.3299 66.5369 151.3659 66.1979 151.5169 64.5679 152.5839 63.4269 154.5699 63.4269 156.5559 63.4269 157.6239 64.5679 157.7739 66.1979 157.8099 66.5369 157.8099 66.9289 157.8099 67.3409V75.3399H159.4209Z" fill="#ffffff"/>
</g>
</g>
</g>
</g>
<g clip-path="url(#clip_60)">
<g opacity=".95">
<g clip-path="url(#clip_61)">
<g clip-path="url(#clip_62)">
<path transform="matrix(1,0,0,-1,0,240.945)" d="M162.409 62.415H164.01999V75.340007H162.409Z" fill="#ffffff"/>
</g>
</g>
</g>
</g>
<g clip-path="url(#clip_63)">
<g opacity=".95">
<g clip-path="url(#clip_64)">
<g clip-path="url(#clip_65)">
<path transform="matrix(1,0,0,-1,0,240.945)" d="M175.7608 62.4152H167.1638V75.3402H168.7738V63.7252H175.7608Z" fill="#ffffff"/>
</g>
</g>
</g>
</g>
<g clip-path="url(#clip_66)">
<g opacity=".95">
<g clip-path="url(#clip_67)">
<g clip-path="url(#clip_68)">
<path transform="matrix(1,0,0,-1,0,240.945)" d="M186.6727 69.0266C186.6727 71.8936 185.3427 73.5796 183.1517 73.9356 182.7397 74.0106 182.2527 74.0276 181.5797 74.0276H179.3497V63.7256H181.4847C182.1587 63.7256 182.6477 63.7446 183.0587 63.8196 185.2507 64.1756 186.6727 65.9746 186.6727 69.0266M188.4357 69.0266C188.4357 65.2246 186.2247 62.8656 183.2267 62.4906 182.5727 62.4156 182.2717 62.4156 181.5797 62.4156H177.7387V75.3396H181.6717C182.3667 75.3396 182.6647 75.3396 183.3207 75.2646 186.3187 74.8896 188.4357 72.8866 188.4357 69.0266" fill="#ffffff"/>
</g>
</g>
</g>
</g>
</g>
</g>
</g>
</g>
</svg>
